<mxfile host="app.diagrams.net" agent="Mozilla/5.0 (Macintosh; Intel Mac OS X 10_15_7) AppleWebKit/537.36 (KHTML, like Gecko) Chrome/140.0.0.0 Safari/537.36" version="28.2.5">
  <diagram id="C5RBs43oDa-KdzZeNtuy" name="Page-1">
    <mxGraphModel dx="1426" dy="1886" grid="1" gridSize="10" guides="1" tooltips="1" connect="1" arrows="1" fold="1" page="1" pageScale="1" pageWidth="827" pageHeight="1169" math="0" shadow="0">
      <root>
        <mxCell id="WIyWlLk6GJQsqaUBKTNV-0" />
        <mxCell id="WIyWlLk6GJQsqaUBKTNV-1" parent="WIyWlLk6GJQsqaUBKTNV-0" />
        <mxCell id="KXcNVZcyFzeE9s_wPr5E-7" value="&lt;font style=&quot;font-size: 17px;&quot;&gt;Exercice 1 : Animals&lt;/font&gt;" style="text;html=1;align=center;verticalAlign=middle;resizable=0;points=[];autosize=1;strokeColor=none;fillColor=none;" parent="WIyWlLk6GJQsqaUBKTNV-1" vertex="1">
          <mxGeometry x="40" y="-1160" width="180" height="30" as="geometry" />
        </mxCell>
        <mxCell id="KXcNVZcyFzeE9s_wPr5E-8" value="" style="group" parent="WIyWlLk6GJQsqaUBKTNV-1" vertex="1" connectable="0">
          <mxGeometry x="40" y="-1120" width="730" height="370" as="geometry" />
        </mxCell>
        <mxCell id="zkfFHV4jXpPFQw0GAbJ--6" value="Poisson" style="swimlane;fontStyle=0;align=center;verticalAlign=top;childLayout=stackLayout;horizontal=1;startSize=26;horizontalStack=0;resizeParent=1;resizeLast=0;collapsible=1;marginBottom=0;rounded=0;shadow=0;strokeWidth=1;" parent="KXcNVZcyFzeE9s_wPr5E-8" vertex="1">
          <mxGeometry y="255.10526315789474" width="199.0909090909091" height="114.89473684210526" as="geometry">
            <mxRectangle x="130" y="380" width="160" height="26" as="alternateBounds" />
          </mxGeometry>
        </mxCell>
        <mxCell id="zkfFHV4jXpPFQw0GAbJ--7" value="- bruit : String (&quot;blulb&quot;)&#xa;- reponseDeGros : StringÂ &#xa;(&quot;un poisson n&#39;est jamais assez gros !&quot;)" style="text;align=left;verticalAlign=top;spacingLeft=4;spacingRight=4;overflow=hidden;rotatable=0;points=[[0,0.5],[1,0.5]];portConstraint=eastwest;" parent="zkfFHV4jXpPFQw0GAbJ--6" vertex="1">
          <mxGeometry y="26" width="199.0909090909091" height="52.578947368421055" as="geometry" />
        </mxCell>
        <mxCell id="zkfFHV4jXpPFQw0GAbJ--9" value="" style="line;html=1;strokeWidth=1;align=left;verticalAlign=middle;spacingTop=-1;spacingLeft=3;spacingRight=3;rotatable=0;labelPosition=right;points=[];portConstraint=eastwest;" parent="zkfFHV4jXpPFQw0GAbJ--6" vertex="1">
          <mxGeometry y="78.57894736842105" width="199.0909090909091" height="7.7894736842105265" as="geometry" />
        </mxCell>
        <mxCell id="zkfFHV4jXpPFQw0GAbJ--12" value="" style="endArrow=block;endSize=10;endFill=0;shadow=0;strokeWidth=1;rounded=0;curved=0;edgeStyle=elbowEdgeStyle;elbow=vertical;entryX=0.5;entryY=1;entryDx=0;entryDy=0;" parent="KXcNVZcyFzeE9s_wPr5E-8" source="zkfFHV4jXpPFQw0GAbJ--6" target="KXcNVZcyFzeE9s_wPr5E-0" edge="1">
          <mxGeometry width="160" relative="1" as="geometry">
            <mxPoint x="215.6818181818182" y="102.23684210526316" as="sourcePoint" />
            <mxPoint x="298.6363636363636" y="155.78947368421052" as="targetPoint" />
          </mxGeometry>
        </mxCell>
        <mxCell id="zkfFHV4jXpPFQw0GAbJ--13" value="Lapin" style="swimlane;fontStyle=0;align=center;verticalAlign=top;childLayout=stackLayout;horizontal=1;startSize=26;horizontalStack=0;resizeParent=1;resizeLast=0;collapsible=1;marginBottom=0;rounded=0;shadow=0;strokeWidth=1;" parent="KXcNVZcyFzeE9s_wPr5E-8" vertex="1">
          <mxGeometry x="248.86363636363635" y="255.10526315789474" width="223.97727272727272" height="114.89473684210526" as="geometry">
            <mxRectangle x="340" y="380" width="170" height="26" as="alternateBounds" />
          </mxGeometry>
        </mxCell>
        <mxCell id="zkfFHV4jXpPFQw0GAbJ--14" value="- bruit : String (&quot;ribbit&quot;)&#xa;- reponseDeGros : String &#xa;(&quot;Je comprend pourquoi la Tortue me rattrape&quot;)" style="text;align=left;verticalAlign=top;spacingLeft=4;spacingRight=4;overflow=hidden;rotatable=0;points=[[0,0.5],[1,0.5]];portConstraint=eastwest;" parent="zkfFHV4jXpPFQw0GAbJ--13" vertex="1">
          <mxGeometry y="26" width="223.97727272727272" height="52.578947368421055" as="geometry" />
        </mxCell>
        <mxCell id="zkfFHV4jXpPFQw0GAbJ--15" value="" style="line;html=1;strokeWidth=1;align=left;verticalAlign=middle;spacingTop=-1;spacingLeft=3;spacingRight=3;rotatable=0;labelPosition=right;points=[];portConstraint=eastwest;" parent="zkfFHV4jXpPFQw0GAbJ--13" vertex="1">
          <mxGeometry y="78.57894736842105" width="223.97727272727272" height="7.7894736842105265" as="geometry" />
        </mxCell>
        <mxCell id="zkfFHV4jXpPFQw0GAbJ--16" value="" style="endArrow=block;endSize=10;endFill=0;shadow=0;strokeWidth=1;rounded=0;curved=0;edgeStyle=elbowEdgeStyle;elbow=vertical;entryX=0.5;entryY=1;entryDx=0;entryDy=0;" parent="KXcNVZcyFzeE9s_wPr5E-8" source="zkfFHV4jXpPFQw0GAbJ--13" target="KXcNVZcyFzeE9s_wPr5E-0" edge="1">
          <mxGeometry width="160" relative="1" as="geometry">
            <mxPoint x="223.97727272727272" y="267.7631578947369" as="sourcePoint" />
            <mxPoint x="298.6363636363636" y="155.78947368421052" as="targetPoint" />
          </mxGeometry>
        </mxCell>
        <mxCell id="KXcNVZcyFzeE9s_wPr5E-0" value="&lt;p style=&quot;margin:0px;margin-top:4px;text-align:center;&quot;&gt;&lt;i&gt;&amp;lt;&amp;lt;abstract&amp;gt;&amp;gt;&lt;/i&gt;&lt;br&gt;&lt;b&gt;Animal&lt;/b&gt;&lt;/p&gt;&lt;hr size=&quot;1&quot; style=&quot;border-style:solid;&quot;&gt;&lt;p style=&quot;margin:0px;margin-left:4px;&quot;&gt;- taille: double&lt;br&gt;- masse: double&lt;br&gt;+ reponseDeGros: String&lt;/p&gt;&lt;hr size=&quot;1&quot; style=&quot;border-style:solid;&quot;&gt;&lt;p style=&quot;margin:0px;margin-left:4px;&quot;&gt;+ calculerBMI(double, double) : double&lt;br&gt;+ faireUnBruit(): ToString&lt;br&gt;+ direSaMasse(): ToString&lt;br&gt;&lt;span style=&quot;text-wrap-mode: nowrap;&quot;&gt;+ repondreTuEsGros(): ToString&lt;/span&gt;&lt;/p&gt;" style="verticalAlign=top;align=left;overflow=fill;html=1;whiteSpace=wrap;" parent="KXcNVZcyFzeE9s_wPr5E-8" vertex="1">
          <mxGeometry x="215.68" width="244.32" height="165.53" as="geometry" />
        </mxCell>
        <mxCell id="KXcNVZcyFzeE9s_wPr5E-1" value="Chat" style="swimlane;fontStyle=0;align=center;verticalAlign=top;childLayout=stackLayout;horizontal=1;startSize=26;horizontalStack=0;resizeParent=1;resizeLast=0;collapsible=1;marginBottom=0;rounded=0;shadow=0;strokeWidth=1;" parent="KXcNVZcyFzeE9s_wPr5E-8" vertex="1">
          <mxGeometry x="514.3181818181818" y="255.10526315789474" width="215.6818181818182" height="114.89473684210526" as="geometry">
            <mxRectangle x="340" y="380" width="170" height="26" as="alternateBounds" />
          </mxGeometry>
        </mxCell>
        <mxCell id="KXcNVZcyFzeE9s_wPr5E-2" value="- bruit : String (&quot;Miaw&quot;)&#xa;- reponseDeGros : String (&quot;Et alors?&quot;)" style="text;align=left;verticalAlign=top;spacingLeft=4;spacingRight=4;overflow=hidden;rotatable=0;points=[[0,0.5],[1,0.5]];portConstraint=eastwest;" parent="KXcNVZcyFzeE9s_wPr5E-1" vertex="1">
          <mxGeometry y="26" width="215.6818181818182" height="52.578947368421055" as="geometry" />
        </mxCell>
        <mxCell id="KXcNVZcyFzeE9s_wPr5E-3" value="" style="line;html=1;strokeWidth=1;align=left;verticalAlign=middle;spacingTop=-1;spacingLeft=3;spacingRight=3;rotatable=0;labelPosition=right;points=[];portConstraint=eastwest;" parent="KXcNVZcyFzeE9s_wPr5E-1" vertex="1">
          <mxGeometry y="78.57894736842105" width="215.6818181818182" height="7.7894736842105265" as="geometry" />
        </mxCell>
        <mxCell id="KXcNVZcyFzeE9s_wPr5E-4" value="" style="endArrow=block;endSize=10;endFill=0;shadow=0;strokeWidth=1;rounded=0;curved=0;edgeStyle=elbowEdgeStyle;elbow=vertical;entryX=0.5;entryY=1;entryDx=0;entryDy=0;" parent="KXcNVZcyFzeE9s_wPr5E-8" source="KXcNVZcyFzeE9s_wPr5E-1" target="KXcNVZcyFzeE9s_wPr5E-0" edge="1">
          <mxGeometry width="160" relative="1" as="geometry">
            <mxPoint x="381.59090909090907" y="267.7631578947369" as="sourcePoint" />
            <mxPoint x="294.4886363636364" y="155.78947368421052" as="targetPoint" />
          </mxGeometry>
        </mxCell>
        <mxCell id="KXcNVZcyFzeE9s_wPr5E-9" value="&lt;font style=&quot;font-size: 17px;&quot;&gt;Exercice 2 : Ship&lt;/font&gt;" style="text;html=1;align=center;verticalAlign=middle;resizable=0;points=[];autosize=1;strokeColor=none;fillColor=none;" parent="WIyWlLk6GJQsqaUBKTNV-1" vertex="1">
          <mxGeometry x="55" y="-680" width="150" height="30" as="geometry" />
        </mxCell>
        <mxCell id="KXcNVZcyFzeE9s_wPr5E-27" value="" style="group" parent="WIyWlLk6GJQsqaUBKTNV-1" vertex="1" connectable="0">
          <mxGeometry x="80" y="-640" width="554.3199999999999" height="420" as="geometry" />
        </mxCell>
        <mxCell id="KXcNVZcyFzeE9s_wPr5E-10" value="&lt;p style=&quot;margin:0px;margin-top:4px;text-align:center;&quot;&gt;&lt;i&gt;&amp;lt;&amp;lt;abstract&amp;gt;&amp;gt;&lt;/i&gt;&lt;br&gt;&lt;b&gt;Bateau&lt;/b&gt;&lt;/p&gt;&lt;hr size=&quot;1&quot; style=&quot;border-style:solid;&quot;&gt;&lt;p style=&quot;margin:0px;margin-left:4px;&quot;&gt;- placeMax: int (100)&lt;br&gt;- masseMax: int (95000)&lt;/p&gt;&lt;p style=&quot;margin:0px;margin-left:4px;&quot;&gt;- placeEmbarquer: int&lt;br&gt;- masseEmbarquer: int&lt;/p&gt;&lt;p style=&quot;margin:0px;margin-left:4px;&quot;&gt;- uniteMasse: String(&quot;killo&quot;) &lt;br&gt;- embarquementBool : bool&lt;br&gt;&lt;/p&gt;&lt;hr size=&quot;1&quot; style=&quot;border-style:solid;&quot;&gt;&lt;p style=&quot;margin:0px;margin-left:4px;&quot;&gt;+ ajouterVehicule(bool): bool&lt;br&gt;+ placeRestante(int) : int&lt;br&gt;+ calculerMasseIn(int): int&lt;br&gt;+ situer() : ToString&lt;br&gt;+ enleverVehicule()&amp;nbsp;&lt;br&gt;+ arreterEmbarquement(): bool(embarquementBool)&lt;/p&gt;" style="verticalAlign=top;align=left;overflow=fill;html=1;whiteSpace=wrap;" parent="KXcNVZcyFzeE9s_wPr5E-27" vertex="1">
          <mxGeometry y="40" width="290" height="220" as="geometry" />
        </mxCell>
        <mxCell id="KXcNVZcyFzeE9s_wPr5E-19" value="Van" style="swimlane;fontStyle=0;align=center;verticalAlign=top;childLayout=stackLayout;horizontal=1;startSize=26;horizontalStack=0;resizeParent=1;resizeLast=0;collapsible=1;marginBottom=0;rounded=0;shadow=0;strokeWidth=1;" parent="KXcNVZcyFzeE9s_wPr5E-27" vertex="1">
          <mxGeometry x="256.02" y="350" width="223.98" height="80.89" as="geometry">
            <mxRectangle x="340" y="380" width="170" height="26" as="alternateBounds" />
          </mxGeometry>
        </mxCell>
        <mxCell id="KXcNVZcyFzeE9s_wPr5E-20" value="- masseVan : int (1500)&#xa;- placeVan : int (2)" style="text;align=left;verticalAlign=top;spacingLeft=4;spacingRight=4;overflow=hidden;rotatable=0;points=[[0,0.5],[1,0.5]];portConstraint=eastwest;" parent="KXcNVZcyFzeE9s_wPr5E-19" vertex="1">
          <mxGeometry y="26" width="223.98" height="34" as="geometry" />
        </mxCell>
        <mxCell id="KXcNVZcyFzeE9s_wPr5E-21" value="" style="line;html=1;strokeWidth=1;align=left;verticalAlign=middle;spacingTop=-1;spacingLeft=3;spacingRight=3;rotatable=0;labelPosition=right;points=[];portConstraint=eastwest;" parent="KXcNVZcyFzeE9s_wPr5E-19" vertex="1">
          <mxGeometry y="60" width="223.98" height="7.7894736842105265" as="geometry" />
        </mxCell>
        <mxCell id="KXcNVZcyFzeE9s_wPr5E-12" value="&lt;p style=&quot;margin:0px;margin-top:4px;text-align:center;&quot;&gt;&lt;i&gt;&amp;lt;&amp;lt;abstract&amp;gt;&amp;gt;&lt;/i&gt;&lt;br&gt;&lt;b&gt;Vehicules&lt;/b&gt;&lt;/p&gt;&lt;hr size=&quot;1&quot; style=&quot;border-style:solid;&quot;&gt;&lt;p style=&quot;margin:0px;margin-left:4px;&quot;&gt;- model: String&lt;br&gt;- masseV: int&amp;nbsp;&lt;br&gt;- placePrise: int&lt;/p&gt;&lt;hr size=&quot;1&quot; style=&quot;border-style:solid;&quot;&gt;&lt;p style=&quot;margin:0px;margin-left:4px;&quot;&gt;+ demanderEmbarquation() : bool&lt;br&gt;+ embarquerConfirmer(bool): int&lt;br&gt;&lt;/p&gt;" style="verticalAlign=top;align=left;overflow=fill;html=1;whiteSpace=wrap;" parent="WIyWlLk6GJQsqaUBKTNV-1" vertex="1">
          <mxGeometry x="560" y="-554" width="254.32" height="140" as="geometry" />
        </mxCell>
        <mxCell id="KXcNVZcyFzeE9s_wPr5E-22" value="" style="endArrow=block;endSize=10;endFill=0;shadow=0;strokeWidth=1;rounded=0;curved=0;edgeStyle=elbowEdgeStyle;elbow=vertical;entryX=0.5;entryY=1;entryDx=0;entryDy=0;exitX=0.5;exitY=0;exitDx=0;exitDy=0;" parent="WIyWlLk6GJQsqaUBKTNV-1" source="KXcNVZcyFzeE9s_wPr5E-19" target="KXcNVZcyFzeE9s_wPr5E-12" edge="1">
          <mxGeometry width="160" relative="1" as="geometry">
            <mxPoint x="103.97727272727275" y="-288.2368421052631" as="sourcePoint" />
            <mxPoint x="218" y="-390" as="targetPoint" />
            <Array as="points">
              <mxPoint x="380" y="-350" />
            </Array>
          </mxGeometry>
        </mxCell>
        <mxCell id="KXcNVZcyFzeE9s_wPr5E-26" value="" style="endArrow=block;endSize=10;endFill=0;shadow=0;strokeWidth=1;rounded=0;curved=0;edgeStyle=elbowEdgeStyle;elbow=vertical;entryX=0.5;entryY=1;entryDx=0;entryDy=0;" parent="WIyWlLk6GJQsqaUBKTNV-1" source="KXcNVZcyFzeE9s_wPr5E-23" target="KXcNVZcyFzeE9s_wPr5E-12" edge="1">
          <mxGeometry width="160" relative="1" as="geometry">
            <mxPoint x="261.590909090909" y="-288.2368421052631" as="sourcePoint" />
            <mxPoint x="218" y="-390" as="targetPoint" />
          </mxGeometry>
        </mxCell>
        <mxCell id="KXcNVZcyFzeE9s_wPr5E-11" value="1" style="endArrow=open;html=1;endSize=12;startArrow=diamondThin;startSize=14;startFill=1;edgeStyle=orthogonalEdgeStyle;align=left;verticalAlign=bottom;rounded=0;exitX=1.001;exitY=0.529;exitDx=0;exitDy=0;entryX=0;entryY=0.5;entryDx=0;entryDy=0;exitPerimeter=0;" parent="WIyWlLk6GJQsqaUBKTNV-1" source="KXcNVZcyFzeE9s_wPr5E-10" target="KXcNVZcyFzeE9s_wPr5E-12" edge="1">
          <mxGeometry x="-0.9069" y="15" relative="1" as="geometry">
            <mxPoint x="20" y="-320" as="sourcePoint" />
            <mxPoint x="180" y="-320" as="targetPoint" />
            <Array as="points">
              <mxPoint x="410" y="-484" />
              <mxPoint x="470" y="-484" />
              <mxPoint x="470" y="-490" />
            </Array>
            <mxPoint x="15" y="-15" as="offset" />
          </mxGeometry>
        </mxCell>
        <mxCell id="KXcNVZcyFzeE9s_wPr5E-14" value="n=(if !embarquementBool)" style="edgeLabel;html=1;align=center;verticalAlign=middle;resizable=0;points=[];" parent="KXcNVZcyFzeE9s_wPr5E-11" vertex="1" connectable="0">
          <mxGeometry x="0.7774" y="1" relative="1" as="geometry">
            <mxPoint x="-48" y="16" as="offset" />
          </mxGeometry>
        </mxCell>
        <mxCell id="KXcNVZcyFzeE9s_wPr5E-23" value="Car" style="swimlane;fontStyle=0;align=center;verticalAlign=top;childLayout=stackLayout;horizontal=1;startSize=26;horizontalStack=0;resizeParent=1;resizeLast=0;collapsible=1;marginBottom=0;rounded=0;shadow=0;strokeWidth=1;" parent="WIyWlLk6GJQsqaUBKTNV-1" vertex="1">
          <mxGeometry x="579.32" y="-290" width="215.68" height="80.89" as="geometry">
            <mxRectangle x="340" y="380" width="170" height="26" as="alternateBounds" />
          </mxGeometry>
        </mxCell>
        <mxCell id="KXcNVZcyFzeE9s_wPr5E-24" value="- masseVan : int (1000)&#xa;- placeVan : int (1)" style="text;align=left;verticalAlign=top;spacingLeft=4;spacingRight=4;overflow=hidden;rotatable=0;points=[[0,0.5],[1,0.5]];portConstraint=eastwest;" parent="KXcNVZcyFzeE9s_wPr5E-23" vertex="1">
          <mxGeometry y="26" width="215.68" height="34" as="geometry" />
        </mxCell>
        <mxCell id="KXcNVZcyFzeE9s_wPr5E-25" value="" style="line;html=1;strokeWidth=1;align=left;verticalAlign=middle;spacingTop=-1;spacingLeft=3;spacingRight=3;rotatable=0;labelPosition=right;points=[];portConstraint=eastwest;" parent="KXcNVZcyFzeE9s_wPr5E-23" vertex="1">
          <mxGeometry y="60" width="215.68" height="7.7894736842105265" as="geometry" />
        </mxCell>
      </root>
    </mxGraphModel>
  </diagram>
</mxfile>
